# xmcd
#
# Track frame offsets:
#	150
#	16995
#	34672
#	46269
#	60332
#	79865
#	98657
#	112899
#	128329
#	141330
#	156186
#
# Disc length: 2330 seconds
#
# Revision: 0
# Processed by: cddbd v1.5.2PL0 Copyright (c) Steve Scherf et al.
# Submitted via: audiograbber 1.83.01
#
DISCID=7c09180b
DTITLE=Garth Brooks - No Fences (Limited Edition)
DYEAR=1990
DGENRE=Country
TTITLE0=The Thunder Rolls
TTITLE1=New Way To Fly
TTITLE2=Two Of A Kind, Workin' On A Full House
TTITLE3=Victim Of The Game
TTITLE4=Friends In Low Places
TTITLE5=This Ain't Tennessee
TTITLE6=Wild Horses
TTITLE7=Unanswered Prayers
TTITLE8=Same Old Story
TTITLE9=Mr. Blue
TTITLE10=Wolves
EXTD=YEAR: 1990
EXTT0=
EXTT1=
EXTT2=
EXTT3=
EXTT4=
EXTT5=
EXTT6=
EXTT7=
EXTT8=
EXTT9=
EXTT10=
PLAYORDER=
